# AST/ASF file generated using VICON BodyLanguage
# -----------------------------------------------
:version 1.10
:name VICON
:units
  mass 1.0
  length 0.45
  angle deg
:documentation
   .ast/.asf automatically generated from VICON data using
   VICON BodyBuilder and BodyLanguage model FoxedUp or BRILLIANT.MOD
:root
   order TX TY TZ RX RY RZ
   axis XYZ
   position 0 0 0  
   orientation 0 0 0 
:bonedata
  begin
     id 1 
     name lhipjoint
     direction 0.714689 -0.624256 0.315473 
     length 2.45343 
     axis 0 0 0  XYZ
  end
  begin
     id 2 
     name lfemur
     direction 0.34202 -0.939693 0  
     length 6.59069  
     axis 0 0 20  XYZ
    dof rx ry rz
    limits (-160.0 20.0)
           (-70.0 70.0)
           (-60.0 70.0)
  end
  begin
     id 3 
     name ltibia
     direction 0.34202 -0.939693 0   
     length 6.73476   
     axis 0 0 20   XYZ
    dof rx
    limits (-10.0 170.0)
  end
  begin
     id 4 
     name lfoot
     direction 0.0718085 -0.197292 0.977711   
     length 1.52607   
     axis -90 7.62852e-016 20   XYZ
    dof rx rz
    limits (-45.0 90.0)
           (-70.0 20.0)
  end
  begin
     id 5 
     name ltoes
     direction 1.53553e-011 -4.22024e-011 1   
     length 0.777832   
     axis -90 7.62852e-016 20   XYZ
    dof rx
    limits (-90.0 20.0)
  end
  begin
     id 6 
     name rhipjoint
     direction -0.727419 -0.612432 0.309497   
     length 2.50079  
     axis 0 0 0  XYZ 
  end
  begin
     id 7 
     name rfemur
     direction -0.34202 -0.939693 0   
     length 6.51665   
     axis 0 0 -20   XYZ
    dof rx ry rz
    limits (-160.0 20.0)
           (-70.0 70.0)
           (-70.0 60.0)
  end
  begin
     id 8 
     name rtibia
     direction -0.34202 -0.939693 0   
     length 6.48919   
     axis 0 0 -20   XYZ
    dof rx
    limits (-10.0 170.0)
 end
 begin
     id 9 
     name rfoot
     direction -0.112205 -0.308282 0.944655   
     length 1.68717  
     axis -90 -7.62852e-016 -20   XYZ
    dof rx rz
    limits (-45.0 90.0)
           (-20.0 70.0)
  end
  begin
     id 10 
     name rtoes
     direction -1.53583e-011 -4.21993e-011 1   
     length 0.846859   
     axis -90 -7.62852e-016 -20   XYZ
    dof rx
    limits (-90.0 20.0)
  end
  begin
     id 11 
     name lowerback
     direction -0.00119603 0.996364 -0.0851956   
     length 1.67242   
     axis 0 0 0   XYZ
    dof rx ry rz
    limits (-20.0 45.0)
           (-30.0 30.0)
           (-30.0 30.0)
  end
  begin
     id 12 
     name upperback
     direction -0.00531001 0.998318 0.0577248   
     length 1.64819   
     axis 0 0 0   XYZ
    dof rx ry rz
    limits (-20.0 45.0)
           (-30.0 30.0)
           (-30.0 30.0)
  end
  begin
     id 13 
     name thorax
     direction -0.00653676 0.995132 0.0983291   
     length 1.67429   
     axis 0 0 0   XYZ
    dof rx ry rz
    limits (-20.0 45.0)
           (-30.0 30.0)
           (-30.0 30.0)
  end
  begin
     id 14 
     name lowerneck
     direction 0.0141424 0.999886 0.00525412   
     length 1.59623   
     axis 0 0 0   XYZ
    dof rx ry rz
    limits (-20.0 45.0)
           (-30.0 30.0)
           (-30.0 30.0)
  end
  begin
     id 15 
     name upperneck
     direction -0.0640064 0.987178 -0.146232   
     length 1.59576   
     axis 0 0 0   XYZ
    dof rx ry rz
    limits (-20.0 45.0)
           (-30.0 30.0)
           (-30.0 30.0)
  end
  begin
     id 16
     name head
     direction -0.0222942 0.998496 -0.0500859  
     length 1.60959  
     axis 0 0 0   XYZ
    dof rx ry rz
    limits (-20.0 45.0)
           (-30.0 30.0)
           (-30.0 30.0)
  end
  begin
     id 17 
     name lclavicle
     direction 0.908549 0.392612 0.142806  
     length 2.80649  
     axis 0 0 0   XYZ
    dof ry rz
    limits (-20.0 10.0)
           (0.0 20.0)
  end
  begin
     id 18 
     name lhumerus
     direction 1 -4.48968e-011 1.08832e-028   
     length 4.2884   
     axis -180 -30 -90   XYZ
    dof rx ry rz
    limits (-60.0 90.0)
           (-90.0 90.0)
           (-90.0 90.0)
  end
  begin
     id 19
     name lradius
     direction 1 -4.48952e-011 -3.02642e-028   
     length 3.06552   
     axis -180 -30 -90   XYZ
    dof rx
    limits (-10.0 170.0)
  end
  begin
     id 20
     name lwrist
     direction 1 -4.49014e-011 1.58672e-027   
     length 1.53276   
     axis -1.65735e-015 90 90   XYZ
    dof ry
    limits (-180.0 0.0)
 end
  begin
     id 21 
     name lhand
     direction 1 -4.48928e-011 3.17344e-027   
     length 0.753045   
     axis -2.02492e-015 90 90   XYZ
    dof rx rz
    limits (-90.0 90.0)
           (-45.0 45.0)
  end
  begin
     id 22 
     name lfingers
     direction 1 -4.48958e-011 6.34687e-027   
     length 0.607124   
     axis -4.04985e-015 90 90   XYZ
    dof rx
    limits (0.0 90.0)
  end
  begin
     id 23
     name lthumb
     direction 0.707107 -6.34905e-011 0.707107   
     length 0.871712   
     axis -90 45 2.85299e-015   XYZ
    dof rx rz
    limits (-45.0 45.0)
           (-45.0 45.0)
  end
  begin
     id 24 
     name rclavicle
     direction -0.885098 0.45949 0.0739604   
     length 2.9478  
     axis 0 0 0   XYZ 
    dof ry rz
    limits (-10.0 20.0)
           (-20.0 0.0)
  end
  begin
     id 25 
     name rhumerus
     direction -1 -4.4898e-011 -2.61739e-027  
     length 4.52172   
     axis -180 30 90   XYZ
    dof rx ry rz
    limits (-90.0 60.0)
           (-90.0 90.0)
           (-90.0 90.0)
  end
  begin
     id 26 
     name rradius
     direction -1 -4.48945e-011 9.02552e-028   
     length 2.8914   
     axis -180 30 90   XYZ
    dof rx
    limits (-10.0 170.0)
  end
  begin
     id 27 
     name rwrist
     direction -1 -4.49018e-011 1.58672e-027   
     length 1.4457   
     axis -1.65735e-015 -90 -90   XYZ
    dof ry
    limits (-180.0 0.0)
  end
  begin
     id 28
     name rhand
     direction -1 -4.48825e-011 3.17344e-027   
     length 0.680541   
     axis -2.02492e-015 -90 -90   XYZ
    dof rx rz
    limits (-90.0 90.0)
           (-45.0 45.0)
  end
  begin
     id 29
     name rfingers
     direction -1 -4.49067e-011 6.34687e-027   
     length 0.54867   
     axis -4.04985e-015 -90 -90   XYZ
    dof rx
    limits (0.0 90.0)
  end
  begin
     id 30
     name rthumb
     direction -0.707107 -6.34833e-011 0.707107   
     length 0.787783   
     axis -90 -45 -2.85299e-015   XYZ
    dof rx rz
    limits (-45.0 45.0)
           (-45.0 45.0)
  end
:hierarchy
  begin
    root lhipjoint rhipjoint lowerback
    lhipjoint lfemur
    lfemur ltibia
    ltibia lfoot
    lfoot ltoes
    rhipjoint rfemur
    rfemur rtibia
    rtibia rfoot
    rfoot rtoes
    lowerback upperback
    upperback thorax
    thorax lowerneck lclavicle rclavicle
    lowerneck upperneck
    upperneck head
    lclavicle lhumerus
    lhumerus lradius
    lradius lwrist
    lwrist lhand lthumb
    lhand lfingers
    rclavicle rhumerus
    rhumerus rradius
    rradius rwrist
    rwrist rhand rthumb
    rhand rfingers
  end

#!OML:ASF E:\emotionWalksFemale\Project 1\Capture day 1\Session 1\Female1.ASF
:FULLY-SPECIFIED
:DEGREES
129
root 9.05015 15.4957 22.3783 179.7 2.05979 -179.414
lowerback 8.46654 1.21137 0.971249
upperback -4.27759 1.80415 -0.077217
thorax -9.27462 0.838393 -0.927008
lowerneck -8.68042 -1.95843 -6.11194
upperneck 8.45639 -2.52088 6.05577
head 4.09711 -1.14155 2.699
rclavicle 2.17048e-014 2.68359e-015
rhumerus -46.3284 17.3675 -96.0674
rradius 31.6031
rwrist 29.3864
rhand -9.92643 -54.1682
rfingers 7.12502
rthumb 16.0545 -83.5231
lclavicle 2.17048e-014 2.68359e-015
lhumerus -42.5523 8.76698 76.8084
lradius 27.0651
lwrist -24.9674
lhand 7.19036 -34.9332
lfingers 7.12502
lthumb 32.4569 -7.81994
rfemur 2.01901 18.0052 27.1543
rtibia 14.5459
rfoot -16.2924 -31.9555
rtoes 1.59336
lfemur -3.5377 -23.9787 -24.0429
ltibia 22.3924
lfoot -20.1251 21.5458
ltoes -36.8989
130
root 9.05 15.4954 22.3798 179.667 2.04037 -179.34
lowerback 8.55599 1.16085 1.00933
upperback -4.23746 1.74351 -0.0248443
thorax -9.28529 0.807324 -0.884402
lowerneck -8.81169 -1.97671 -6.13629
upperneck 8.41113 -2.52687 6.02826
head 4.10554 -1.14317 2.69331
rclavicle 4.86091e-015 -8.94531e-016
rhumerus -46.0139 16.9712 -94.9626
rradius 31.4002
rwrist 30.1228
rhand -9.86123 -54.4155
rfingers 7.12502
rthumb 16.1173 -83.7654
lclavicle 4.86091e-015 -8.94531e-016
lhumerus -42.6473 9.08684 75.8402
lradius 27.2215
lwrist -24.8623
lhand 8.35692 -34.6293
lfingers 7.12502
lthumb 33.5663 -7.75033
rfemur 2.10401 18.0382 27.2592
rtibia 14.4482
rfoot -16.054 -32.0312
rtoes 1.38197
lfemur -3.54655 -23.9862 -23.9652
ltibia 22.4758
lfoot -20.2214 21.5733
ltoes -36.933
131
root 9.04864 15.4961 22.3817 179.701 2.08647 -179.265
lowerback 8.58985 1.15086 1.06911
upperback -4.24025 1.73966 -0.00514562
thorax -9.30736 0.802176 -0.897344
lowerneck -8.83961 -1.99558 -6.08789
upperneck 8.29403 -2.54611 5.99407
head 4.07476 -1.15139 2.67322
rclavicle -4.80189e-015 -4.96962e-017
rhumerus -45.6926 16.6221 -93.9355
rradius 31.0034
rwrist 30.5654
rhand -8.89121 -54.711
rfingers 7.12502
rthumb 17.0512 -83.9827
lclavicle -4.80189e-015 -4.96962e-017
lhumerus -42.6766 9.30802 74.8678
lradius 27.2291
lwrist -24.5335
lhand 9.29418 -34.4107
lfingers 7.12502
lthumb 34.4566 -7.72946
rfemur 2.0817 18.0464 27.3266
rtibia 14.4033
rfoot -15.8667 -32.0435
rtoes 1.02537
lfemur -3.60593 -23.9797 -23.8625
ltibia 22.5238
lfoot -20.3983 21.4862
ltoes -36.7329
132
root 9.04846 15.4984 22.3841 179.806 2.17146 -179.226
lowerback 8.59532 1.16607 1.04315
upperback -4.30225 1.76324 0.0232897
thorax -9.37974 0.816618 -0.857793
lowerneck -8.75759 -2.00845 -6.06255
upperneck 8.12144 -2.55586 5.93967
head 4.00832 -1.1584 2.65183
rclavicle -7.34882e-015 -2.33572e-015
rhumerus -45.3496 16.1783 -92.7568
rradius 30.5851
rwrist 31.1911
rhand -12.5889 -53.6436
rfingers 7.12502
rthumb 13.4895 -83.1868
lclavicle -7.34882e-015 -2.33572e-015
lhumerus -42.7719 9.09391 74.1218
lradius 27.3365
lwrist -23.9912
lhand 9.79714 -34.0095
lfingers 7.12502
lthumb 34.9339 -7.43807
rfemur 1.93559 18.077 27.3312
rtibia 14.4262
rfoot -15.7291 -32.0167
rtoes 0.786419
lfemur -3.72312 -23.9386 -23.76
ltibia 22.5218
lfoot -20.5269 21.4099
ltoes -36.6225
133
root 9.04916 15.4997 22.3867 179.896 2.24921 -179.279
lowerback 8.64571 1.18081 0.918333
upperback -4.3589 1.77185 0.0347998
thorax -9.4755 0.82882 -0.779355
lowerneck -8.72375 -2.03061 -6.05464
upperneck 7.96767 -2.57161 5.86641
head 3.95598 -1.16879 2.62692
rclavicle 6.18407e-015 -2.98177e-016
rhumerus -45.0127 15.905 -91.6004
rradius 30.322
rwrist 31.4319
rhand -11.7569 -53.7146
rfingers 7.12502
rthumb 14.2913 -83.2028
lclavicle 6.18407e-015 -2.98177e-016
lhumerus -42.9235 8.8301 73.3999
lradius 27.5456
lwrist -23.4144
lhand 10.1193 -33.9435
lfingers 7.12502
lthumb 35.2395 -7.4437
rfemur 1.79572 18.1418 27.2416
rtibia 14.4722
rfoot -15.9084 -31.9538
rtoes 0.986213
lfemur -3.8258 -23.8774 -23.7659
ltibia 22.4977
lfoot -20.4896 21.4333
ltoes -36.6247
134
root 9.04986 15.5012 22.391 179.98 2.23786 -179.39
lowerback 8.68607 1.17739 0.756465
upperback -4.38353 1.74612 0.0136391
thorax -9.53083 0.825441 -0.708261
lowerneck -8.79037 -2.04751 -6.11129
upperneck 7.92026 -2.5885 5.94428
head 3.95539 -1.17347 2.65872
rclavicle -3.23646e-015 -3.50358e-015
rhumerus -44.7659 15.816 -90.6184
rradius 30.0355
rwrist 30.9129
rhand -9.13319 -54.7228
rfingers 7.12502
rthumb 16.8182 -84.0145
lclavicle -3.23646e-015 -3.50358e-015
lhumerus -42.9896 8.86996 72.47
lradius 27.6727
lwrist -23.0218
lhand 10.3226 -34.1375
lfingers 7.12502
lthumb 35.4323 -7.68353
rfemur 1.66343 18.183 27.0959
rtibia 14.5065
rfoot -16.0766 -31.9911
rtoes 1.03393
lfemur -3.95161 -23.7683 -23.8185
ltibia 22.4787
lfoot -20.3388 21.4251
ltoes -37.0028
